<svg xmlns="http://www.w3.org/2000/svg" width="25.563" height="22.798" viewBox="0 0 25.563 22.798">
  <path id="Path_887" data-name="Path 887" d="M12.212,4.147c.284-.417.539-.836.838-1.221a5.79,5.79,0,0,1,8.392-1.112A6.278,6.278,0,0,1,23.674,5.5a7.46,7.46,0,0,1-.926,5.584,15.29,15.29,0,0,1-2.67,3.261c-1.028.977-2.082,1.93-3.147,2.866-1.225,1.075-2.475,2.121-3.714,3.18-.162.138-.318.282-.477.423a.716.716,0,0,1-.99.037q-1.14-.941-2.268-1.9c-1.16-.989-2.324-1.973-3.466-2.981a25.5,25.5,0,0,1-3.806-3.969A8.5,8.5,0,0,1,.667,8.738,7.541,7.541,0,0,1,.58,6.073,6.824,6.824,0,0,1,1.905,2.843,5.781,5.781,0,0,1,5.5.613a5.665,5.665,0,0,1,4.628,1.075,7.141,7.141,0,0,1,1.914,2.2C12.1,3.972,12.156,4.058,12.212,4.147Z" transform="translate(0.599 0.605)" fill="none" stroke="#b9b6b6" stroke-miterlimit="10" stroke-width="2.2"/>
</svg>
