<svg xmlns="http://www.w3.org/2000/svg" width="25.516" height="25.516" viewBox="0 0 25.516 25.516">
  <path id="Icon_awesome-facebook-square" data-name="Icon awesome-facebook-square" d="M22.782,2.25H2.734A2.734,2.734,0,0,0,0,4.984V25.032a2.734,2.734,0,0,0,2.734,2.734h7.817V19.091H6.963V15.008h3.588V11.9c0-3.54,2.107-5.5,5.335-5.5a21.738,21.738,0,0,1,3.162.276v3.474H17.267a2.042,2.042,0,0,0-2.3,2.206v2.651h3.917l-.627,4.083H14.965v8.675h7.817a2.734,2.734,0,0,0,2.734-2.734V4.984A2.734,2.734,0,0,0,22.782,2.25Z" transform="translate(0 -2.25)" fill="#574a44"/>
</svg>
